# xmcd
#
# Track frame offsets: 
#        150
#        12805
#        26715
#        39415
#        61550
#        76510
#        90345
#        102592
#        117195
#        128077
#        142887
#        158017
#        172545
#        192897
#        209102
#        225110
#        235112
#        254012
#        271590
#        285497
#
# Disc length: 3962 seconds
#
# Revision: 0
# Processed by: cddbd v1.5.1PL0 Copyright (c) Steve Scherf et al.
# Submitted via: ExactAudioCopy v0.95a5
#
DISCID=eb0f7814
DTITLE=Dwight Yoakam - Guitars, Cadillacs Etc. Etc. * Hillbilly Deluxe
DYEAR=2001
DGENRE=Country
TTITLE0=Honky Tonk Man
TTITLE1=It Won't Hurt
TTITLE2=I'll Be Gone
TTITLE3=South Of Cincinnati
TTITLE4=Bury Me
TTITLE5=Guitars, Cadillacs
TTITLE6=Twenty Years
TTITLE7=Ring Of Fire
TTITLE8=Miner's Prayer
TTITLE9=Heartaches By The Number
TTITLE10=Little Ways
TTITLE11=Smoke Along The Track
TTITLE12=Johnson's Love
TTITLE13=Please, Please Baby
TTITLE14=Readin', Rightin', Rt. 23
TTITLE15=Always Late With Your Kisses
TTITLE16=1,000 Miles
TTITLE17=Throughout All Time
TTITLE18=Little Sister
TTITLE19=This Drinkin' Will Kill Me
EXTD=Guitars, Cadillacs =(c)1986 Warner Bros/Reprise USA, upc 7599 25
EXTD=3722\nHillbilly Deluxe     =(c)1987 Warner Bros/Reprise USA, up
EXTD=c 7599 255672\nYEAR: 2001\n
EXTT0=
EXTT1=
EXTT2=
EXTT3=
EXTT4=
EXTT5=
EXTT6=
EXTT7=
EXTT8=
EXTT9=
EXTT10=
EXTT11=
EXTT12=
EXTT13=
EXTT14=
EXTT15=
EXTT16=
EXTT17=
EXTT18=
EXTT19=
PLAYORDER=
